<svg width="1080" height="780" viewBox="0 0 1080 780" xmlns="http://www.w3.org/2000/svg">
  <rect width="100%" height="100%" fill="#0b1220"/>
  <g transform="translate(40,36)">
    <rect width="1000" height="420" rx="12" fill="#071026" stroke="#12314a"/>
    <text x="20" y="34" fill="#f8fafc" font-size="20" font-weight="800">Jobs — Nearby</text>
    <!-- Job list -->
    <g transform="translate(0,56)">
      <rect x="0" y="0" width="1000" height="76" rx="10" fill="#0f172a"/>
      <text x="16" y="28" fill="#f8fafc" font-size="14" font-weight="700">Order #1234 — Pickup: Cafe</text>
      <text x="16" y="48" fill="#cbd5e1" font-size="12">ETA 18 min · 2.4 mi</text>
      <rect x="880" y="20" width="92" height="36" rx="9" fill="#1453ff"/>
      <text x="908" y="44" fill="#ffffff" font-size="14" font-weight="700">Accept</text>
    </g>
    <g transform="translate(0,142)">
      <rect x="0" y="0" width="1000" height="76" rx="10" fill="#0f172a"/>
      <text x="16" y="28" fill="#f8fafc" font-size="14" font-weight="700">Order #1235 — Pickup: Market</text>
      <text x="16" y="48" fill="#cbd5e1" font-size="12">ETA 22 min · 3.0 mi</text>
      <rect x="880" y="20" width="92" height="36" rx="9" fill="#edf2ff"/>
      <text x="900" y="44" fill="#1453ff" font-size="14" font-weight="700">View</text>
    </g>
    <!-- Map preview -->
    <rect x="0" y="242" width="1000" height="160" rx="10" fill="#082033"/>
    <text x="12" y="322" fill="#cbd5e1" font-size="12">Map preview • zoom to active job</text>
  </g>

  <!-- Bottom preview card -->
  <g transform="translate(40,480)">
    <rect width="1000" height="220" rx="14" fill="rgba(15,23,42,0.86)"/>
    <text x="20" y="34" fill="#f8fafc" font-size="17" font-weight="800">Senderr MapShell</text>
    <text x="20" y="60" fill="#cbd5e1" font-size="12">No active job — Swipe to browse</text>
    <rect x="20" y="110" width="220" height="44" rx="10" fill="#1453ff"/>
    <text x="96" y="140" fill="#ffffff" font-size="15" font-weight="700">Refresh Jobs</text>
  </g>
</svg>